<?xml version='1.0' encoding='UTF-8'?>
<svg width="90mm" height="90mm" version="1.1" viewBox="0 0 90 90" xmlns="http://www.w3.org/2000/svg"><path d="M8,8H10V10H8zM10,8H12V10H10zM12,8H14V10H12zM14,8H16V10H14zM16,8H18V10H16zM18,8H20V10H18zM20,8H22V10H20zM28,8H30V10H28zM30,8H32V10H30zM38,8H40V10H38zM46,8H48V10H46zM58,8H60V10H58zM60,8H62V10H60zM68,8H70V10H68zM70,8H72V10H70zM72,8H74V10H72zM74,8H76V10H74zM76,8H78V10H76zM78,8H80V10H78zM80,8H82V10H80zM8,10H10V12H8zM20,10H22V12H20zM26,10H28V12H26zM30,10H32V12H30zM32,10H34V12H32zM34,10H36V12H34zM38,10H40V12H38zM42,10H44V12H42zM48,10H50V12H48zM50,10H52V12H50zM52,10H54V12H52zM56,10H58V12H56zM68,10H70V12H68zM80,10H82V12H80zM8,12H10V14H8zM12,12H14V14H12zM14,12H16V14H14zM16,12H18V14H16zM20,12H22V14H20zM24,12H26V14H24zM28,12H30V14H28zM30,12H32V14H30zM32,12H34V14H32zM38,12H40V14H38zM40,12H42V14H40zM42,12H44V14H42zM56,12H58V14H56zM58,12H60V14H58zM60,12H62V14H60zM62,12H64V14H62zM68,12H70V14H68zM72,12H74V14H72zM74,12H76V14H74zM76,12H78V14H76zM80,12H82V14H80zM8,14H10V16H8zM12,14H14V16H12zM14,14H16V16H14zM16,14H18V16H16zM20,14H22V16H20zM24,14H26V16H24zM28,14H30V16H28zM30,14H32V16H30zM38,14H40V16H38zM40,14H42V16H40zM46,14H48V16H46zM48,14H50V16H48zM54,14H56V16H54zM56,14H58V16H56zM58,14H60V16H58zM64,14H66V16H64zM68,14H70V16H68zM72,14H74V16H72zM74,14H76V16H74zM76,14H78V16H76zM80,14H82V16H80zM8,16H10V18H8zM12,16H14V18H12zM14,16H16V18H14zM16,16H18V18H16zM20,16H22V18H20zM26,16H28V18H26zM28,16H30V18H28zM36,16H38V18H36zM38,16H40V18H38zM48,16H50V18H48zM54,16H56V18H54zM56,16H58V18H56zM58,16H60V18H58zM60,16H62V18H60zM68,16H70V18H68zM72,16H74V18H72zM74,16H76V18H74zM76,16H78V18H76zM80,16H82V18H80zM8,18H10V20H8zM20,18H22V20H20zM26,18H28V20H26zM28,18H30V20H28zM32,18H34V20H32zM34,18H36V20H34zM40,18H42V20H40zM42,18H44V20H42zM44,18H46V20H44zM48,18H50V20H48zM52,18H54V20H52zM54,18H56V20H54zM60,18H62V20H60zM68,18H70V20H68zM80,18H82V20H80zM8,20H10V22H8zM10,20H12V22H10zM12,20H14V22H12zM14,20H16V22H14zM16,20H18V22H16zM18,20H20V22H18zM20,20H22V22H20zM24,20H26V22H24zM28,20H30V22H28zM32,20H34V22H32zM36,20H38V22H36zM40,20H42V22H40zM44,20H46V22H44zM48,20H50V22H48zM52,20H54V22H52zM56,20H58V22H56zM60,20H62V22H60zM64,20H66V22H64zM68,20H70V22H68zM70,20H72V22H70zM72,20H74V22H72zM74,20H76V22H74zM76,20H78V22H76zM78,20H80V22H78zM80,20H82V22H80zM30,22H32V24H30zM32,22H34V24H32zM34,22H36V24H34zM36,22H38V24H36zM38,22H40V24H38zM48,22H50V24H48zM50,22H52V24H50zM52,22H54V24H52zM54,22H56V24H54zM56,22H58V24H56zM58,22H60V24H58zM60,22H62V24H60zM62,22H64V24H62zM64,22H66V24H64zM14,24H16V26H14zM16,24H18V26H16zM20,24H22V26H20zM22,24H24V26H22zM26,24H28V26H26zM28,24H30V26H28zM40,24H42V26H40zM52,24H54V26H52zM54,24H56V26H54zM56,24H58V26H56zM58,24H60V26H58zM64,24H66V26H64zM74,24H76V26H74zM76,24H78V26H76zM12,26H14V28H12zM16,26H18V28H16zM18,26H20V28H18zM24,26H26V28H24zM26,26H28V28H26zM28,26H30V28H28zM30,26H32V28H30zM32,26H34V28H32zM40,26H42V28H40zM44,26H46V28H44zM48,26H50V28H48zM54,26H56V28H54zM58,26H60V28H58zM60,26H62V28H60zM62,26H64V28H62zM70,26H72V28H70zM72,26H74V28H72zM74,26H76V28H74zM76,26H78V28H76zM78,26H80V28H78zM8,28H10V30H8zM10,28H12V30H10zM12,28H14V30H12zM14,28H16V30H14zM18,28H20V30H18zM20,28H22V30H20zM22,28H24V30H22zM24,28H26V30H24zM26,28H28V30H26zM30,28H32V30H30zM32,28H34V30H32zM34,28H36V30H34zM36,28H38V30H36zM40,28H42V30H40zM42,28H44V30H42zM44,28H46V30H44zM48,28H50V30H48zM50,28H52V30H50zM52,28H54V30H52zM56,28H58V30H56zM58,28H60V30H58zM62,28H64V30H62zM64,28H66V30H64zM66,28H68V30H66zM68,28H70V30H68zM76,28H78V30H76zM80,28H82V30H80zM8,30H10V32H8zM12,30H14V32H12zM14,30H16V32H14zM26,30H28V32H26zM28,30H30V32H28zM34,30H36V32H34zM42,30H44V32H42zM46,30H48V32H46zM48,30H50V32H48zM50,30H52V32H50zM54,30H56V32H54zM60,30H62V32H60zM66,30H68V32H66zM68,30H70V32H68zM70,30H72V32H70zM72,30H74V32H72zM74,30H76V32H74zM76,30H78V32H76zM80,30H82V32H80zM10,32H12V34H10zM12,32H14V34H12zM14,32H16V34H14zM16,32H18V34H16zM20,32H22V34H20zM24,32H26V34H24zM26,32H28V34H26zM28,32H30V34H28zM32,32H34V34H32zM36,32H38V34H36zM38,32H40V34H38zM44,32H46V34H44zM46,32H48V34H46zM50,32H52V34H50zM52,32H54V34H52zM64,32H66V34H64zM68,32H70V34H68zM70,32H72V34H70zM74,32H76V34H74zM80,32H82V34H80zM10,34H12V36H10zM12,34H14V36H12zM14,34H16V36H14zM18,34H20V36H18zM26,34H28V36H26zM28,34H30V36H28zM32,34H34V36H32zM38,34H40V36H38zM40,34H42V36H40zM50,34H52V36H50zM52,34H54V36H52zM56,34H58V36H56zM62,34H64V36H62zM64,34H66V36H64zM66,34H68V36H66zM72,34H74V36H72zM76,34H78V36H76zM78,34H80V36H78zM8,36H10V38H8zM12,36H14V38H12zM14,36H16V38H14zM20,36H22V38H20zM22,36H24V38H22zM26,36H28V38H26zM28,36H30V38H28zM30,36H32V38H30zM36,36H38V38H36zM38,36H40V38H38zM40,36H42V38H40zM42,36H44V38H42zM44,36H46V38H44zM62,36H64V38H62zM66,36H68V38H66zM68,36H70V38H68zM72,36H74V38H72zM74,36H76V38H74zM76,36H78V38H76zM78,36H80V38H78zM80,36H82V38H80zM8,38H10V40H8zM10,38H12V40H10zM14,38H16V40H14zM16,38H18V40H16zM22,38H24V40H22zM28,38H30V40H28zM30,38H32V40H30zM34,38H36V40H34zM40,38H42V40H40zM42,38H44V40H42zM44,38H46V40H44zM46,38H48V40H46zM52,38H54V40H52zM54,38H56V40H54zM56,38H58V40H56zM60,38H62V40H60zM62,38H64V40H62zM68,38H70V40H68zM72,38H74V40H72zM74,38H76V40H74zM76,38H78V40H76zM78,38H80V40H78zM80,38H82V40H80zM10,40H12V42H10zM14,40H16V42H14zM18,40H20V42H18zM20,40H22V42H20zM22,40H24V42H22zM24,40H26V42H24zM30,40H32V42H30zM36,40H38V42H36zM38,40H40V42H38zM44,40H46V42H44zM46,40H48V42H46zM48,40H50V42H48zM52,40H54V42H52zM54,40H56V42H54zM56,40H58V42H56zM58,40H60V42H58zM68,40H70V42H68zM70,40H72V42H70zM76,40H78V42H76zM80,40H82V42H80zM12,42H14V44H12zM14,42H16V44H14zM22,42H24V44H22zM36,42H38V44H36zM40,42H42V44H40zM42,42H44V44H42zM46,42H48V44H46zM48,42H50V44H48zM58,42H60V44H58zM62,42H64V44H62zM70,42H72V44H70zM76,42H78V44H76zM78,42H80V44H78zM10,44H12V46H10zM20,44H22V46H20zM22,44H24V46H22zM24,44H26V46H24zM28,44H30V46H28zM40,44H42V46H40zM42,44H44V46H42zM44,44H46V46H44zM48,44H50V46H48zM50,44H52V46H50zM52,44H54V46H52zM54,44H56V46H54zM58,44H60V46H58zM60,44H62V46H60zM62,44H64V46H62zM80,44H82V46H80zM8,46H10V48H8zM12,46H14V48H12zM14,46H16V48H14zM22,46H24V48H22zM30,46H32V48H30zM32,46H34V48H32zM34,46H36V48H34zM38,46H40V48H38zM40,46H42V48H40zM42,46H44V48H42zM46,46H48V48H46zM48,46H50V48H48zM50,46H52V48H50zM52,46H54V48H52zM54,46H56V48H54zM58,46H60V48H58zM64,46H66V48H64zM66,46H68V48H66zM74,46H76V48H74zM78,46H80V48H78zM80,46H82V48H80zM10,48H12V50H10zM14,48H16V50H14zM18,48H20V50H18zM20,48H22V50H20zM24,48H26V50H24zM36,48H38V50H36zM38,48H40V50H38zM42,48H44V50H42zM46,48H48V50H46zM48,48H50V50H48zM50,48H52V50H50zM54,48H56V50H54zM60,48H62V50H60zM62,48H64V50H62zM64,48H66V50H64zM66,48H68V50H66zM68,48H70V50H68zM72,48H74V50H72zM8,50H10V52H8zM10,50H12V52H10zM12,50H14V52H12zM14,50H16V52H14zM16,50H18V52H16zM22,50H24V52H22zM26,50H28V52H26zM28,50H30V52H28zM42,50H44V52H42zM44,50H46V52H44zM46,50H48V52H46zM48,50H50V52H48zM52,50H54V52H52zM54,50H56V52H54zM56,50H58V52H56zM58,50H60V52H58zM62,50H64V52H62zM64,50H66V52H64zM70,50H72V52H70zM72,50H74V52H72zM76,50H78V52H76zM78,50H80V52H78zM20,52H22V54H20zM22,52H24V54H22zM24,52H26V54H24zM28,52H30V54H28zM32,52H34V54H32zM34,52H36V54H34zM36,52H38V54H36zM38,52H40V54H38zM44,52H46V54H44zM46,52H48V54H46zM50,52H52V54H50zM54,52H56V54H54zM58,52H60V54H58zM62,52H64V54H62zM66,52H68V54H66zM72,52H74V54H72zM76,52H78V54H76zM80,52H82V54H80zM8,54H10V56H8zM14,54H16V56H14zM22,54H24V56H22zM24,54H26V56H24zM28,54H30V56H28zM30,54H32V56H30zM32,54H34V56H32zM42,54H44V56H42zM46,54H48V56H46zM48,54H50V56H48zM50,54H52V56H50zM58,54H60V56H58zM62,54H64V56H62zM64,54H66V56H64zM66,54H68V56H66zM68,54H70V56H68zM70,54H72V56H70zM76,54H78V56H76zM80,54H82V56H80zM8,56H10V58H8zM12,56H14V58H12zM14,56H16V58H14zM16,56H18V58H16zM18,56H20V58H18zM20,56H22V58H20zM22,56H24V58H22zM32,56H34V58H32zM42,56H44V58H42zM48,56H50V58H48zM50,56H52V58H50zM56,56H58V58H56zM58,56H60V58H58zM64,56H66V58H64zM68,56H70V58H68zM70,56H72V58H70zM74,56H76V58H74zM78,56H80V58H78zM80,56H82V58H80zM8,58H10V60H8zM10,58H12V60H10zM12,58H14V60H12zM14,58H16V60H14zM16,58H18V60H16zM22,58H24V60H22zM26,58H28V60H26zM32,58H34V60H32zM34,58H36V60H34zM38,58H40V60H38zM42,58H44V60H42zM44,58H46V60H44zM48,58H50V60H48zM52,58H54V60H52zM58,58H60V60H58zM60,58H62V60H60zM62,58H64V60H62zM64,58H66V60H64zM66,58H68V60H66zM70,58H72V60H70zM72,58H74V60H72zM8,60H10V62H8zM10,60H12V62H10zM12,60H14V62H12zM20,60H22V62H20zM24,60H26V62H24zM26,60H28V62H26zM34,60H36V62H34zM38,60H40V62H38zM40,60H42V62H40zM54,60H56V62H54zM56,60H58V62H56zM58,60H60V62H58zM60,60H62V62H60zM62,60H64V62H62zM64,60H66V62H64zM68,60H70V62H68zM76,60H78V62H76zM78,60H80V62H78zM80,60H82V62H80zM8,62H10V64H8zM12,62H14V64H12zM14,62H16V64H14zM24,62H26V64H24zM26,62H28V64H26zM30,62H32V64H30zM34,62H36V64H34zM36,62H38V64H36zM38,62H40V64H38zM42,62H44V64H42zM46,62H48V64H46zM50,62H52V64H50zM54,62H56V64H54zM60,62H62V64H60zM66,62H68V64H66zM74,62H76V64H74zM76,62H78V64H76zM78,62H80V64H78zM80,62H82V64H80zM8,64H10V66H8zM12,64H14V66H12zM16,64H18V66H16zM20,64H22V66H20zM22,64H24V66H22zM28,64H30V66H28zM30,64H32V66H30zM38,64H40V66H38zM40,64H42V66H40zM46,64H48V66H46zM56,64H58V66H56zM58,64H60V66H58zM62,64H64V66H62zM64,64H66V66H64zM66,64H68V66H66zM68,64H70V66H68zM70,64H72V66H70zM72,64H74V66H72zM76,64H78V66H76zM24,66H26V68H24zM26,66H28V68H26zM28,66H30V68H28zM30,66H32V68H30zM34,66H36V68H34zM36,66H38V68H36zM40,66H42V68H40zM42,66H44V68H42zM46,66H48V68H46zM48,66H50V68H48zM64,66H66V68H64zM72,66H74V68H72zM74,66H76V68H74zM76,66H78V68H76zM78,66H80V68H78zM8,68H10V70H8zM10,68H12V70H10zM12,68H14V70H12zM14,68H16V70H14zM16,68H18V70H16zM18,68H20V70H18zM20,68H22V70H20zM24,68H26V70H24zM26,68H28V70H26zM28,68H30V70H28zM32,68H34V70H32zM38,68H40V70H38zM40,68H42V70H40zM44,68H46V70H44zM46,68H48V70H46zM48,68H50V70H48zM50,68H52V70H50zM52,68H54V70H52zM54,68H56V70H54zM58,68H60V70H58zM60,68H62V70H60zM64,68H66V70H64zM68,68H70V70H68zM72,68H74V70H72zM74,68H76V70H74zM76,68H78V70H76zM80,68H82V70H80zM8,70H10V72H8zM20,70H22V72H20zM28,70H30V72H28zM30,70H32V72H30zM32,70H34V72H32zM34,70H36V72H34zM40,70H42V72H40zM44,70H46V72H44zM48,70H50V72H48zM50,70H52V72H50zM58,70H60V72H58zM64,70H66V72H64zM72,70H74V72H72zM74,70H76V72H74zM80,70H82V72H80zM8,72H10V74H8zM12,72H14V74H12zM14,72H16V74H14zM16,72H18V74H16zM20,72H22V74H20zM24,72H26V74H24zM26,72H28V74H26zM28,72H30V74H28zM30,72H32V74H30zM38,72H40V74H38zM44,72H46V74H44zM46,72H48V74H46zM50,72H52V74H50zM60,72H62V74H60zM62,72H64V74H62zM64,72H66V74H64zM66,72H68V74H66zM68,72H70V74H68zM70,72H72V74H70zM72,72H74V74H72zM8,74H10V76H8zM12,74H14V76H12zM14,74H16V76H14zM16,74H18V76H16zM20,74H22V76H20zM24,74H26V76H24zM26,74H28V76H26zM32,74H34V76H32zM34,74H36V76H34zM40,74H42V76H40zM42,74H44V76H42zM44,74H46V76H44zM48,74H50V76H48zM56,74H58V76H56zM60,74H62V76H60zM62,74H64V76H62zM64,74H66V76H64zM68,74H70V76H68zM76,74H78V76H76zM8,76H10V78H8zM12,76H14V78H12zM14,76H16V78H14zM16,76H18V78H16zM20,76H22V78H20zM26,76H28V78H26zM28,76H30V78H28zM30,76H32V78H30zM36,76H38V78H36zM40,76H42V78H40zM42,76H44V78H42zM44,76H46V78H44zM54,76H56V78H54zM58,76H60V78H58zM64,76H66V78H64zM70,76H72V78H70zM72,76H74V78H72zM74,76H76V78H74zM78,76H80V78H78zM80,76H82V78H80zM8,78H10V80H8zM20,78H22V80H20zM30,78H32V80H30zM32,78H34V80H32zM36,78H38V80H36zM38,78H40V80H38zM46,78H48V80H46zM48,78H50V80H48zM50,78H52V80H50zM52,78H54V80H52zM54,78H56V80H54zM56,78H58V80H56zM68,78H70V80H68zM72,78H74V80H72zM74,78H76V80H74zM76,78H78V80H76zM78,78H80V80H78zM80,78H82V80H80zM8,80H10V82H8zM10,80H12V82H10zM12,80H14V82H12zM14,80H16V82H14zM16,80H18V82H16zM18,80H20V82H18zM20,80H22V82H20zM28,80H30V82H28zM32,80H34V82H32zM40,80H42V82H40zM42,80H44V82H42zM44,80H46V82H44zM48,80H50V82H48zM52,80H54V82H52zM54,80H56V82H54zM56,80H58V82H56zM64,80H66V82H64zM66,80H68V82H66zM68,80H70V82H68zM74,80H76V82H74zM80,80H82V82H80z" id="qr-path" fill="#000000" fill-opacity="1" fill-rule="nonzero" stroke="none" /></svg>